<svg xmlns="http://www.w3.org/2000/svg" width="50" height="50" viewBox="0 0 50 50">
<g>
<path d="M 0.01 22.50 L 0.00 50.00 L 0.00 9.12 C0.00,17.08 0.19,18.09 1.49,17.01 C3.40,15.42 6.00,16.42 6.00,18.75 C6.00,19.74 6.71,21.56 7.57,22.79 C9.08,24.96 11.00,24.98 11.00,22.84 C11.00,22.27 11.74,20.25 12.64,18.35 C14.40,14.63 19.12,11.70 25.07,10.62 C27.04,10.27 30.16,8.86 32.02,7.49 C36.56,4.14 41.84,4.14 45.00,7.50 C48.67,11.41 50.00,10.75 50.00,5.00 L 50.00 50.00 L 49.94 31.75 C49.90,19.82 49.56,14.28 48.97,15.75 C48.31,17.39 47.24,18.00 45.04,18.00 C42.59,18.00 41.36,18.90 38.55,22.75 C34.09,28.85 31.99,37.54 34.52,39.39 C35.45,40.07 36.05,41.50 35.84,42.57 C35.52,44.24 34.56,44.51 28.62,44.58 C19.88,44.67 15.50,42.20 15.50,37.15 C15.50,33.71 14.12,32.52 7.13,29.91 C5.28,29.22 2.92,27.27 1.89,25.58 ZM 20.25 41.33 C21.49,42.19 22.84,42.92 23.25,42.95 C24.76,43.05 23.94,41.20 21.86,39.82 L 19.71 38.40 L 22.86 34.82 C24.59,32.85 26.00,30.32 26.00,29.19 C26.00,27.09 23.58,24.00 21.93,24.00 C21.42,24.00 21.00,23.52 21.00,22.93 C21.00,21.76 24.85,22.62 26.50,24.16 C27.05,24.67 27.73,29.01 28.00,33.80 C28.49,42.41 28.53,42.50 31.25,42.82 C34.34,43.17 35.03,41.50 32.11,40.74 C30.29,40.26 30.28,40.00 31.86,33.37 C32.83,29.31 34.93,24.36 37.00,21.27 C39.99,16.80 40.97,16.03 43.68,16.02 C47.63,16.00 48.51,13.26 45.37,10.75 C43.06,8.90 41.00,8.46 41.00,9.81 C41.00,10.25 40.38,11.46 39.62,12.50 C38.32,14.28 38.17,14.22 36.63,11.26 L 35.02 8.13 L 30.76 10.45 C28.42,11.73 24.76,13.08 22.64,13.45 C17.98,14.27 14.38,17.88 12.96,23.15 C12.39,25.27 11.37,27.00 10.68,27.00 C8.46,27.00 5.24,24.10 4.60,21.52 C4.25,20.14 3.52,19.00 2.98,19.00 C1.76,19.00 1.76,19.02 3.11,22.88 C4.13,25.81 8.27,29.00 11.05,29.00 C11.68,29.00 13.50,29.93 15.10,31.07 C17.30,32.64 18.00,33.93 18.00,36.45 C18.00,38.75 18.69,40.23 20.25,41.33 ZM 13.00 42.86 C13.00,44.78 12.45,45.00 7.56,45.00 C4.57,45.00 1.84,44.56 1.51,44.01 C0.90,43.02 5.88,36.00 7.20,36.00 C8.85,36.00 13.00,40.91 13.00,42.86 ZM 24.00 39.02 C24.04,39.05 24.08,39.07 24.12,39.10 C25.00,39.65 25.46,39.95 25.71,39.82 C26.00,39.67 26.00,38.97 26.00,37.46 C26.00,37.40 26.00,37.35 26.00,37.29 C26.00,34.70 25.92,34.65 24.25,36.32 C22.72,37.85 22.69,38.19 24.00,39.02 ZM 37.64 9.31 C38.44,10.11 40.00,9.20 40.00,7.94 C40.00,7.42 39.33,7.00 38.50,7.00 C36.95,7.00 36.51,8.18 37.64,9.31 ZM 8.00 42.00 C8.00,42.55 8.68,43.00 9.50,43.00 C10.32,43.00 11.00,42.55 11.00,42.00 C11.00,41.45 10.32,41.00 9.50,41.00 C8.68,41.00 8.00,41.45 8.00,42.00 Z" fill="rgb(11,11,11)"/>
<path d="M 0.00 36.25 L 0.01 22.50 L 1.89 25.58 C2.92,27.27 5.28,29.22 7.13,29.91 C14.12,32.52 15.50,33.71 15.50,37.15 C15.50,42.20 19.88,44.67 28.62,44.58 C34.56,44.51 35.52,44.24 35.84,42.57 C36.05,41.50 35.45,40.07 34.52,39.39 C31.99,37.54 34.09,28.85 38.55,22.75 C41.36,18.90 42.59,18.00 45.04,18.00 C47.24,18.00 48.31,17.39 48.97,15.75 C49.56,14.28 49.90,19.82 49.94,31.75 L 50.00 50.00 L 25.00 50.00 L 0.00 50.00 L 0.00 36.25 ZM 13.00 42.86 C13.00,40.91 8.85,36.00 7.20,36.00 C5.88,36.00 0.90,43.02 1.51,44.01 C1.84,44.56 4.57,45.00 7.56,45.00 C12.45,45.00 13.00,44.78 13.00,42.86 ZM 20.25 41.33 C18.69,40.23 18.00,38.75 18.00,36.45 C18.00,33.93 17.30,32.64 15.10,31.07 C13.50,29.93 11.68,29.00 11.05,29.00 C8.27,29.00 4.13,25.81 3.11,22.88 C1.76,19.02 1.76,19.00 2.98,19.00 C3.52,19.00 4.25,20.14 4.60,21.52 C5.24,24.10 8.46,27.00 10.68,27.00 C11.37,27.00 12.39,25.27 12.96,23.15 C14.38,17.88 17.98,14.27 22.64,13.45 C24.76,13.08 28.42,11.73 30.76,10.45 L 35.02 8.13 L 36.63 11.26 C38.17,14.22 38.32,14.28 39.62,12.50 C40.38,11.46 41.00,10.25 41.00,9.81 C41.00,8.46 43.06,8.90 45.37,10.75 C48.51,13.26 47.63,16.00 43.68,16.02 C40.97,16.03 39.99,16.80 37.00,21.27 C34.93,24.36 32.83,29.31 31.86,33.37 C30.28,40.00 30.29,40.26 32.11,40.74 C35.03,41.50 34.34,43.17 31.25,42.82 C28.53,42.50 28.49,42.41 28.00,33.80 C27.73,29.01 27.05,24.67 26.50,24.16 C24.85,22.62 21.00,21.76 21.00,22.93 C21.00,23.52 21.42,24.00 21.93,24.00 C23.58,24.00 26.00,27.09 26.00,29.19 C26.00,30.32 24.59,32.85 22.86,34.82 L 19.71 38.40 L 21.86 39.82 C23.94,41.20 24.76,43.05 23.25,42.95 C22.84,42.92 21.49,42.19 20.25,41.33 ZM 24.00 39.02 C22.69,38.19 22.72,37.85 24.25,36.32 C25.92,34.65 26.00,34.70 26.00,37.29 C26.00,40.35 26.04,40.31 24.00,39.02 ZM 7.57 22.79 C6.71,21.56 6.00,19.74 6.00,18.75 C6.00,16.42 3.40,15.42 1.49,17.01 C0.19,18.09 0.00,17.08 0.00,9.12 L 0.00 0.00 L 25.00 0.00 L 50.00 0.00 L 50.00 5.00 C50.00,10.75 48.67,11.41 45.00,7.50 C41.84,4.14 36.56,4.14 32.02,7.49 C30.16,8.86 27.04,10.27 25.07,10.62 C19.12,11.70 14.40,14.63 12.64,18.35 C11.74,20.25 11.00,22.27 11.00,22.84 C11.00,24.98 9.08,24.96 7.57,22.79 ZM 37.64 9.31 C36.51,8.18 36.95,7.00 38.50,7.00 C39.33,7.00 40.00,7.42 40.00,7.94 C40.00,9.20 38.44,10.11 37.64,9.31 ZM 8.00 42.00 C8.00,41.45 8.68,41.00 9.50,41.00 C10.32,41.00 11.00,41.45 11.00,42.00 C11.00,42.55 10.32,43.00 9.50,43.00 C8.68,43.00 8.00,42.55 8.00,42.00 Z" fill="rgb(252,252,252)"/>
</g>
</svg>